<svg width="95" height="95" viewBox="0 0 95 95" fill="none" xmlns="http://www.w3.org/2000/svg">
<path d="M70.7226 68.8593L49.0309 47.1615L70.7227 25.4637C70.9723 25.214 71.1126 24.8753 71.1126 24.5222C71.1126 24.1691 70.9723 23.8304 70.7227 23.5807C66.0601 18.9169 60.1197 15.7409 53.6526 14.4542C47.1855 13.1674 40.4822 13.8278 34.3903 16.3519C28.2984 18.8759 23.0916 23.1502 19.4282 28.6342C15.7649 34.1183 13.8095 40.5658 13.8094 47.1614C13.8094 53.7571 15.7646 60.2047 19.4279 65.6889C23.0912 71.173 28.2981 75.4474 34.39 77.9714C40.482 80.4955 47.1853 81.1559 53.6525 79.8691C60.1196 78.5823 66.0601 75.4061 70.7226 70.7422C70.9722 70.4925 71.1124 70.1538 71.1124 69.8007C71.1124 69.4476 70.9722 69.1089 70.7226 68.8593ZM56.5489 58.4475L54.3167 58.4476C53.9636 58.4477 53.625 58.588 53.3754 58.8378C53.1258 59.0875 52.9856 59.4263 52.9857 59.7794C52.9857 60.1326 53.126 60.4713 53.3757 60.7209C53.6254 60.9706 53.9641 61.1108 54.3171 61.1108L57.622 61.1108C57.8276 61.1108 58.0305 61.063 58.2145 60.9712C58.3986 60.8794 58.5588 60.746 58.6825 60.5817L63.6856 65.5862C63.2811 65.7366 62.8322 65.8623 62.3705 65.9913C61.5782 66.185 60.8076 66.4584 60.0704 66.8073C59.3171 65.9479 58.3208 65.3375 57.2132 65.0565C56.1056 64.7756 54.9389 64.8375 53.8672 65.234C52.7956 65.6305 51.8694 66.343 51.2111 67.2772C50.5529 68.2114 50.1936 69.3235 50.1806 70.4664C50.0468 70.4719 49.9128 70.4809 49.7781 70.4961C48.7614 70.61 47.8283 71.0046 46.9264 71.3859L46.6351 71.5086C45.8057 71.8559 45.0062 72.1611 44.3399 72.0862C43.6115 72.0046 42.8202 71.4357 41.9821 70.8339C41.1852 70.2611 40.3613 69.6688 39.3913 69.33C38.4406 68.9979 37.4408 68.9508 36.473 68.9044C35.4307 68.8549 34.4467 68.8076 33.8048 68.4042C33.2041 68.025 32.7438 67.1795 32.2564 66.2834C31.7817 65.41 31.2906 64.5072 30.5487 63.765C29.8068 63.0229 28.9041 62.5317 28.0311 62.0569C27.1353 61.5694 26.2896 61.1088 25.9109 60.508C25.507 59.8663 25.4607 58.8809 25.4106 57.8387C25.3648 56.8712 25.3173 55.8707 24.9854 54.9199C24.6467 53.9496 24.0547 53.1253 23.4819 52.3283C22.8796 51.4904 22.3111 50.6987 22.2297 49.9695C22.1553 49.3039 22.4605 48.5041 22.8074 47.6745L22.9312 47.381C23.3124 46.4788 23.7066 45.5462 23.8202 44.5298C23.9332 43.5199 23.7557 42.5275 23.5841 41.5678C23.4012 40.5453 23.2285 39.5796 23.4746 38.8742C23.7132 38.1904 24.4413 37.5481 25.2119 36.8681C25.9505 36.2164 26.7142 35.5427 27.2654 34.667C27.7973 33.8221 28.0648 32.8625 28.3238 31.9346C28.6055 30.9247 28.8716 29.9709 29.4173 29.4249C29.9631 28.879 30.9167 28.6129 31.9263 28.3311C32.8539 28.072 33.8133 27.8044 34.6579 27.2724C35.5333 26.721 36.2075 25.9577 36.8584 25.2185C37.5384 24.4474 38.1805 23.7194 38.8642 23.4806C39.5698 23.2342 40.5354 23.407 41.5579 23.59C42.5164 23.761 43.5089 23.9392 44.5186 23.8262C45.5354 23.7123 46.4685 23.3177 47.3704 22.9364L47.6617 22.8138C48.491 22.4665 49.2912 22.1606 49.9568 22.2362C50.6852 22.3177 51.4765 22.8866 52.3147 23.4885C53.1115 24.0612 53.9355 24.6535 54.9055 24.9924C55.8561 25.3245 56.8559 25.3715 57.8237 25.4179C58.3462 25.4325 58.8674 25.4759 59.3851 25.5479C58.0967 27.8234 58.1516 30.7018 59.5672 32.8564L46.2073 46.2201C45.9577 46.4697 45.8174 46.8084 45.8174 47.1615C45.8174 47.5147 45.9577 47.8533 46.2073 48.103L56.5489 58.4475ZM57.4374 69.104C56.7576 69.8751 56.1153 70.6032 55.4316 70.842C54.753 71.079 53.834 70.9283 52.8553 70.7535C52.8074 70.1387 52.9515 69.5242 53.2678 68.9949C53.5841 68.4656 54.0569 68.0476 54.6209 67.7987C55.1849 67.5497 55.8123 67.4821 56.4163 67.6052C57.0204 67.7283 57.5713 68.036 57.993 68.4858C57.8042 68.69 57.6201 68.8977 57.4377 69.1044L57.4374 69.104ZM61.5138 30.9093C61.2408 30.3201 61.1018 29.6777 61.1066 29.0283C61.1114 28.3789 61.2599 27.7386 61.5415 27.1535C61.7094 27.4328 61.8727 27.7326 62.0397 28.0397C62.3085 28.5343 62.5844 29.0374 62.9063 29.5164L61.5138 30.9093ZM47.1485 77.8468C42.16 77.8467 37.2469 76.6298 32.8348 74.3015C28.4227 71.9731 24.6448 68.6036 21.8286 64.485C19.0123 60.3664 17.2427 55.623 16.673 50.6657C16.1034 45.7085 16.7509 40.6872 18.5594 36.0368C20.3679 31.3864 23.283 27.2474 27.0518 23.9784C30.8207 20.7094 35.3297 18.4091 40.188 17.2768C45.0463 16.1445 50.1074 16.2145 54.9326 17.4806C59.7578 18.7466 64.2016 21.1707 67.8787 24.5426L64.8362 27.5859C64.6828 27.3258 64.5325 27.0495 64.3786 26.7668C63.7789 25.6637 63.099 24.4143 61.91 23.6649C60.676 22.8878 59.2276 22.819 57.9497 22.7584C57.1365 22.7198 56.3685 22.683 55.7825 22.4784C55.1762 22.2667 54.5407 21.8098 53.868 21.3263C52.8394 20.5866 51.6736 19.7486 50.2533 19.5895C48.9544 19.4435 47.7529 19.8892 46.6347 20.3574L46.3342 20.4837C45.5735 20.8055 44.8546 21.1094 44.2223 21.1803C43.5972 21.2501 42.8343 21.1138 42.0268 20.9691C40.7727 20.7447 39.3518 20.4908 37.9866 20.967C36.6451 21.4353 35.6979 22.5097 34.8618 23.4572C34.3104 24.0824 33.7903 24.6723 33.2391 25.0193C32.7234 25.3441 31.9886 25.5492 31.2106 25.7664C29.975 26.1112 28.5745 26.5021 27.5347 27.5422C26.4949 28.5823 26.104 29.9832 25.7593 31.2192C25.5422 31.9974 25.3372 32.7324 25.0119 33.2489C24.6649 33.8002 24.0748 34.3209 23.45 34.8719C22.5027 35.7079 21.4287 36.6554 20.9607 37.9974C20.4844 39.3623 20.7386 40.7836 20.963 42.0378C21.1075 42.8458 21.244 43.6089 21.174 44.2346C21.1031 44.8666 20.7997 45.5848 20.4784 46.3452L20.351 46.6482C19.8828 47.767 19.4381 48.9683 19.5835 50.2669C19.7426 51.6878 20.5805 52.854 21.3198 53.8831C21.8032 54.556 22.2599 55.1917 22.4717 55.7983C22.6761 56.3841 22.7125 57.1525 22.7516 57.9661C22.8121 59.2445 22.881 60.6934 23.6578 61.9278C24.4071 63.1181 25.6566 63.7974 26.759 64.3971C27.4983 64.7994 28.1965 65.1793 28.6661 65.6491C29.1358 66.1189 29.5156 66.8172 29.9178 67.5568C30.3666 68.3823 30.8601 69.2897 31.5782 70.0081C31.8225 70.2546 32.0936 70.4729 32.3865 70.6589C33.6206 71.436 35.069 71.5048 36.3468 71.5654C37.16 71.604 37.928 71.6407 38.514 71.8454C39.1203 72.0571 39.7559 72.5139 40.4285 72.9975C41.4571 73.7372 42.6229 74.5752 44.0432 74.7343C45.3421 74.8802 46.5436 74.4346 47.6618 73.9664L47.9623 73.84C48.723 73.5183 49.4419 73.2144 50.0742 73.1434C50.6996 73.0734 51.4623 73.2101 52.2701 73.3546C53.524 73.5791 54.9448 73.8331 56.3099 73.3568C57.6515 72.8883 58.5987 71.814 59.4347 70.8666C59.9862 70.2413 60.5062 69.6515 61.0574 69.3045C61.5732 68.9796 62.3079 68.7745 63.0865 68.5568C63.9328 68.3206 64.8564 68.0626 65.6883 67.5894L67.8787 69.7805C62.2325 74.9874 54.8281 77.8685 47.1485 77.8468V77.8468Z" fill="white"/>
<path d="M44.9474 31.0352C44.201 30.2887 43.2502 29.7803 42.215 29.5744C41.1798 29.3684 40.1069 29.4741 39.1317 29.8781C38.1566 30.2821 37.3232 30.9663 36.7368 31.8441C36.1504 32.722 35.8375 33.754 35.8375 34.8097C35.8375 35.8655 36.1504 36.8975 36.7368 37.7753C37.3232 38.6532 38.1566 39.3373 39.1318 39.7414C40.1069 40.1454 41.1798 40.2511 42.215 40.0451C43.2502 39.8391 44.201 39.3308 44.9474 38.5842C45.9467 37.5824 46.5079 36.225 46.5079 34.8097C46.5079 33.3945 45.9467 32.0371 44.9474 31.0352V31.0352ZM39.2829 36.7013C38.9089 36.3272 38.6542 35.8505 38.551 35.3316C38.4478 34.8127 38.5008 34.2748 38.7032 33.786C38.9056 33.2972 39.2484 32.8795 39.6882 32.5855C40.1279 32.2916 40.645 32.1347 41.1739 32.1347C41.7028 32.1347 42.2199 32.2916 42.6597 32.5855C43.0995 32.8795 43.4422 33.2972 43.6447 33.786C43.8471 34.2748 43.9 34.8127 43.7968 35.3316C43.6936 35.8505 43.4389 36.3272 43.0649 36.7013C42.563 37.2022 41.8829 37.4835 41.1739 37.4835C40.4649 37.4835 39.7848 37.2022 39.2829 36.7013V36.7013Z" fill="#05A84B"/>
<path d="M34.2556 48.0646C33.7265 47.5354 33.0525 47.175 32.3187 47.029C31.5849 46.883 30.8243 46.9579 30.1331 47.2443C29.4419 47.5306 28.8511 48.0156 28.4354 48.6378C28.0197 49.26 27.7978 49.9916 27.7977 50.74C27.7976 51.4883 28.0194 52.2199 28.435 52.8422C28.8506 53.4645 29.4414 53.9496 30.1325 54.236C30.8237 54.5225 31.5843 54.5975 32.3181 54.4516C33.0519 54.3057 33.726 53.9455 34.2551 53.4164C34.9637 52.7062 35.3616 51.7439 35.3617 50.7406C35.3618 49.7373 34.964 48.7749 34.2556 48.0646ZM30.6278 51.6933C30.4394 51.5049 30.3111 51.2648 30.2592 51.0034C30.2072 50.742 30.2339 50.471 30.3358 50.2248C30.4378 49.9785 30.6105 49.7681 30.832 49.62C31.0536 49.472 31.314 49.393 31.5805 49.393C31.8469 49.393 32.1074 49.472 32.3289 49.6201C32.5505 49.7682 32.7231 49.9787 32.8251 50.2249C32.927 50.4712 32.9536 50.7421 32.9016 51.0035C32.8496 51.2649 32.7213 51.505 32.5329 51.6934C32.28 51.9456 31.9375 52.0871 31.5804 52.0871C31.2234 52.087 30.8809 51.9453 30.6282 51.693L30.6278 51.6933Z" fill="#05A84B"/>
<path d="M42.6681 66.6441C43.144 67.1202 43.7504 67.4444 44.4106 67.5758C45.0708 67.7071 45.755 67.6397 46.3769 67.3821C46.9987 67.1244 47.5302 66.6881 47.9042 66.1283C48.2781 65.5685 48.4777 64.9103 48.4777 64.237C48.4777 63.5638 48.2781 62.9056 47.9042 62.3458C47.5302 61.786 46.9987 61.3497 46.3769 61.092C45.755 60.8344 45.0708 60.767 44.4106 60.8983C43.7504 61.0297 43.144 61.3539 42.6681 61.8299C42.0309 62.4689 41.673 63.3345 41.673 64.237C41.673 65.1396 42.0309 66.0052 42.6681 66.6441V66.6441ZM45.9317 63.3797C46.1012 63.5492 46.2166 63.7652 46.2633 64.0004C46.3101 64.2355 46.2861 64.4793 46.1944 64.7008C46.1026 64.9223 45.9473 65.1116 45.748 65.2448C45.5487 65.378 45.3143 65.4491 45.0746 65.4491C44.8349 65.4491 44.6006 65.378 44.4013 65.2447C44.2021 65.1115 44.0467 64.9222 43.955 64.7007C43.8633 64.4791 43.8393 64.2354 43.8861 64.0002C43.9329 63.7651 44.0483 63.5491 44.2179 63.3796C44.4454 63.1527 44.7535 63.0254 45.0747 63.0254C45.3959 63.0255 45.704 63.153 45.9314 63.3799L45.9317 63.3797Z" fill="#05A84B"/>
<path d="M41.3033 53.2843C41.3033 53.4592 41.3377 53.6324 41.4046 53.794C41.4715 53.9556 41.5696 54.1024 41.6932 54.2261C41.8169 54.3498 41.9636 54.448 42.1252 54.5149C42.2867 54.5819 42.4599 54.6163 42.6348 54.6163C42.8096 54.6164 42.9828 54.5819 43.1444 54.515C43.3059 54.4481 43.4527 54.35 43.5764 54.2263C43.7 54.1026 43.7981 53.9558 43.8651 53.7942C43.932 53.6326 43.9665 53.4594 43.9665 53.2845L43.9665 49.9773C43.9665 49.624 43.8262 49.2852 43.5765 49.0354C43.3268 48.7856 42.9881 48.6453 42.6349 48.6452C42.2817 48.6452 41.943 48.7855 41.6933 49.0353C41.4435 49.2851 41.3032 49.6239 41.3032 49.9772L41.3033 53.2843Z" fill="white"/>
<path d="M49.4975 31.7294C49.4974 32.0827 49.6377 32.4215 49.8874 32.6713C50.1372 32.9211 50.4759 33.0615 50.829 33.0615C51.1822 33.0615 51.5209 32.9212 51.7707 32.6714C52.0204 32.4216 52.1607 32.0828 52.1607 31.7295L52.1606 28.4225C52.1607 28.0692 52.0204 27.7304 51.7707 27.4806C51.521 27.2308 51.1823 27.0904 50.8292 27.0904C50.476 27.0904 50.1373 27.2307 49.8875 27.4805C49.6378 27.7302 49.4975 28.069 49.4975 28.4223L49.4975 31.7294Z" fill="white"/>
<path d="M30.9638 38.7708C30.9638 38.4175 30.8235 38.0787 30.5738 37.8289C30.3241 37.5791 29.9854 37.4387 29.6322 37.4387C29.279 37.4387 28.9403 37.579 28.6906 37.8288C28.4408 38.0786 28.3005 38.4174 28.3005 38.7707L28.3005 42.0776C28.3005 42.4309 28.4407 42.7697 28.6904 43.0195C28.9401 43.2693 29.2788 43.4096 29.632 43.4097C29.9851 43.4097 30.3238 43.2694 30.5736 43.0196C30.8233 42.7699 30.9636 42.4311 30.9637 42.0778L30.9638 38.7708Z" fill="white"/>
<path d="M36.8037 60.3463C36.8037 60.1714 36.7693 59.9982 36.7024 59.8366C36.6355 59.675 36.5374 59.5281 36.4138 59.4044C36.2902 59.2808 36.1434 59.1826 35.9818 59.1157C35.8203 59.0487 35.6471 59.0143 35.4723 59.0142C35.2974 59.0142 35.1242 59.0487 34.9627 59.1156C34.8011 59.1825 34.6543 59.2806 34.5306 59.4043C34.407 59.528 34.3089 59.6748 34.242 59.8364C34.175 59.998 34.1406 60.1712 34.1406 60.3461L34.1402 63.6529C34.1402 64.0062 34.2805 64.345 34.5302 64.5948C34.7799 64.8446 35.1186 64.985 35.4718 64.985C35.825 64.985 36.1637 64.8447 36.4134 64.5949C36.6632 64.3451 36.8035 64.0063 36.8035 63.653L36.8037 60.3463Z" fill="white"/>
</svg>
